# xmcd
#
# Track frame offsets: 
#        150
#        12110
#        25317
#        41722
#        61277
#        78799
#        95067
#        117664
#        138030
#        160428
#        182537
#        196298
#        216252
#        234952
#
# Disc length: 3401 seconds
#
# Revision: 0
# Processed by: cddbd v1.5.2PL0 Copyright (c) Steve Scherf et al.
# Submitted via: ExactAudioCopyFreeDBPlugin 1.0
#
DISCID=b70d470e
DTITLE=My Blue Van - Hush
DYEAR=2015
DGENRE=Blues
TTITLE0=Hush
TTITLE1=25 Nights and Days
TTITLE2=Story on a Strange Place
TTITLE3=Plusminus
TTITLE4=I Give you my Curse
TTITLE5=Float
TTITLE6=Bloodstain
TTITLE7=Who is there to Know
TTITLE8=Carousel
TTITLE9=Sail Away
TTITLE10=Rushing High
TTITLE11=Wave
TTITLE12=Storm
TTITLE13=Dementia
EXTD=
EXTT0=
EXTT1=
EXTT2=
EXTT3=
EXTT4=
EXTT5=
EXTT6=
EXTT7=
EXTT8=
EXTT9=
EXTT10=
EXTT11=
EXTT12=
EXTT13=
PLAYORDER=
